<?xml version="1.0" standalone="no"?>
<!DOCTYPE svg PUBLIC "-//W3C//DTD SVG 20010904//EN"
 "http://www.w3.org/TR/2001/REC-SVG-20010904/DTD/svg10.dtd">
<svg version="1.0" xmlns="http://www.w3.org/2000/svg"
 width="512.000000pt" height="512.000000pt" viewBox="0 0 512.000000 512.000000"
 preserveAspectRatio="xMidYMid meet">
<metadata>
Created by potrace 1.14, written by Peter Selinger 2001-2017
</metadata>
<g transform="translate(0.000000,512.000000) scale(0.100000,-0.100000)"
fill="#000000" stroke="none">
<path d="M245 5098 c-14 -13 -36 -50 -50 -83 -13 -33 -30 -63 -37 -66 -7 -4
-37 -17 -65 -29 -74 -33 -97 -60 -89 -104 4 -22 17 -42 34 -53 35 -24 99 -53
117 -53 7 0 19 -17 26 -37 53 -162 139 -187 199 -59 16 34 31 68 33 77 3 8 23
21 46 28 54 16 108 48 116 69 26 65 -1 103 -102 143 -35 13 -63 29 -63 36 0
24 -40 104 -64 128 -31 31 -67 32 -101 3z"/>
<path d="M2379 5116 c-2 -2 -35 -6 -74 -10 -61 -5 -188 -24 -279 -41 -51 -10
-239 -63 -311 -88 -177 -62 -261 -101 -490 -231 -51 -29 -182 -123 -272 -194
-190 -152 -382 -363 -523 -571 -174 -260 -319 -600 -374 -881 -44 -224 -51
-299 -50 -550 0 -113 3 -232 8 -265 4 -33 10 -76 12 -95 3 -19 6 -44 8 -55 2
-11 7 -38 11 -60 38 -215 130 -477 243 -695 262 -504 710 -929 1215 -1151 50
-22 101 -44 112 -49 55 -25 262 -90 348 -110 120 -27 111 -25 172 -34 28 -4
61 -10 75 -12 115 -19 469 -26 605 -11 480 51 923 226 1295 510 41 31 78 57
81 57 4 0 9 -13 12 -29 9 -43 54 -135 82 -170 42 -49 125 -51 161 -3 19 24 62
112 77 157 15 43 13 41 112 81 96 39 139 79 139 131 0 22 -8 52 -17 67 -19 28
-105 76 -174 96 -24 7 -43 15 -43 18 0 3 29 43 64 91 149 201 223 332 341 606
10 24 60 170 72 210 11 39 64 267 68 297 23 154 30 241 30 423 0 193 -3 251
-16 330 -4 28 -10 68 -13 90 -3 22 -8 51 -11 65 -3 14 -10 45 -15 70 -52 262
-188 589 -343 829 -381 589 -974 995 -1652 1130 -55 11 -120 23 -145 26 -25 3
-61 8 -80 11 -39 6 -456 15 -461 10z"/>
</g>
</svg>
